<?xml version="1.0" encoding="us-ascii" standalone="no"?><svg xmlns="http://www.w3.org/2000/svg" xmlns:xlink="http://www.w3.org/1999/xlink" contentStyleType="text/css" height="382px" preserveAspectRatio="none" style="width:854px;height:382px;background:#FFFFFF;" version="1.1" viewBox="0 0 854 382" width="854px" zoomAndPan="magnify"><defs/><g><!--cluster infrastructure1--><g id="cluster_infrastructure1"><path d="M32.9072,55.1029 C38.5199,44.814 44.4473,42.7435 53.1008,51.9539 C59.2496,43.6857 67.724,43.3241 73.6341,52.2392 C78.4978,41.1779 87.0824,40.0223 95.807,47.6615 C102.2596,36.4281 110.9335,36.8448 117.1924,47.8478 C122.7359,37.6962 129.1361,37.2948 136.3388,46.1789 C144.6819,35.8675 152.5894,35.0592 159.997,47.1662 C164.1267,35.7508 173.1601,34.9525 179.9421,44.662 C185.9778,34.0196 195.109,35.8796 200.4419,45.3775 C206.8002,36.2963 216.4926,37.4202 219.9098,48.2528 C226.0071,38.5518 234.366,37.4409 241.0832,47.5916 C249.4106,38.2258 258.9459,37.5167 264.4879,50.5077 C269.8088,42.1788 278.0417,41.4797 283.8865,49.9011 C290.2852,40.7955 298.5632,40.6885 304.4297,50.4796 C315.5856,38.2411 328.1795,44.2232 331.471,58.5 C332.5528,56.7544 334.2135,57.3068 334.9885,58.8302 C344.9877,66.4739 345.2299,74.7366 333.4865,80.9007 C345.7834,86.8535 347.2415,95.5012 336.1722,104.153 C346.477,108.4877 346.5784,116.7292 337.3718,122.3503 C349.7199,128.0954 350.7457,138.955 338.6284,146 C349.1523,152.4037 348.7342,160.8971 337.9447,166.5933 C347.2023,172.8924 344.7815,180.2739 336.0142,184.6454 C346.7314,193.5781 344.5071,200.778 332.9227,206.5655 C342.1625,219.2425 338.7414,228.2002 324.471,233.5 C327.1364,232.4454 328.5913,233.5964 328.475,236.3925 C319.5619,246.0175 312.047,247.1763 303.904,235.5041 C298.8283,243.8654 293.7011,246.2126 286.6166,237.5431 C279.3939,249.6528 270.7799,249.0764 264.2054,236.9438 C258.2045,249.2792 248.2025,249.5142 241.732,237.3751 C237.78,248.4124 231.4723,249.8379 223.4988,241.079 C215.9476,252.7568 207.3199,251.6855 201.0891,239.8221 C195.9162,249.6525 188.8428,252.4407 180.8105,242.8001 C173.706,250.8046 164.7571,251.3818 159.819,240.4043 C153.0905,251.2277 142.269,250.8686 136.9692,238.9677 C129.4884,247.427 123.2915,246.9058 117.3079,237.3351 C110.8614,247.2903 103.0156,248.9496 95.7334,238.2061 C90.0205,247.155 81.2267,246.6961 75.3767,238.3676 C68.6285,248.8572 59.137,248.9914 52.5379,238.2076 C37.7307,248.102 28.8198,241.6779 24.471,226.5 C26.8728,226.2481 28.5706,227.9418 27.6249,230.3983 C15.7905,225.111 14.8108,214.8645 25.4498,207.4473 C12.3039,203.7728 12.2897,196.8055 18.7708,186.7863 C6.6413,179.3493 8.6602,170.6426 19.173,163.5983 C9.2324,159.8189 9.2792,152.9217 15.7529,145.9596 C7.8273,137.8165 8.1486,129.8965 18.8465,124.4292 C9.226,117.2276 6,108.1504 18.6531,100.7668 C11.489,91.9493 12.594,85.4965 23.9673,81.9007 C12.144,69.9713 14.301,56.2732 31.471,51.5 C33.8552,51.8469 34.0701,53.3421 32.9072,55.1029 " fill="none" style="stroke:#181818;stroke-width:1.0;"/><text fill="#000000" font-family="sans-serif" font-size="14" font-weight="bold" lengthAdjust="spacing" textLength="110" x="122.971" y="69.4951">Infrastructure</text></g><!--cluster SmartServer--><g id="cluster_SmartServer"><rect fill="none" height="225" rx="2.5" ry="2.5" style="stroke:#181818;stroke-width:1.0;" width="216" x="424.471" y="144.5"/><rect fill="none" height="10" style="stroke:#181818;stroke-width:1.0;" width="15" x="620.471" y="149.5"/><rect fill="none" height="2" style="stroke:#181818;stroke-width:1.0;" width="4" x="618.471" y="151.5"/><rect fill="none" height="2" style="stroke:#181818;stroke-width:1.0;" width="4" x="618.471" y="155.5"/><text fill="#000000" font-family="sans-serif" font-size="14" font-weight="bold" lengthAdjust="spacing" textLength="99" x="482.971" y="170.4951">SmartServer</text></g><!--cluster infrastructure2--><g id="cluster_infrastructure2"><path d="M672.5222,281.0445 C676.4138,274.8322 681.9492,275.3495 685.199,281.6925 C688.8333,274.5542 692.8715,274.3288 697.6784,280.6014 C700.3196,274.9173 705.2294,273.5239 709.1946,279.2672 C712.3175,274.6503 716.0674,273.8821 719.2079,279.2496 C723.3433,273.9162 728.3618,273.6927 731.5974,280.1918 C733.9841,275.3024 738.7702,274.2848 742.5262,278.5587 C745.319,273.1997 750.6883,272.0085 754.7116,277.1276 C758.3519,272.2848 762.9704,272.8207 765.3743,278.3933 C769.0977,272.5586 774.6857,272.4624 778.1103,278.7083 C781.598,272.625 786.8156,274.4254 789.6138,279.4241 C793.226,273.4239 797.6326,274.957 801.0049,279.679 C804.8511,273.9036 808.3903,274.5962 811.79,280.1057 C815.0792,275.5329 820.8668,274.4402 823.4787,280.828 C827.791,275.62 831.7009,275.6863 835.4288,281.4637 C841.6192,284.5954 842.6223,290.7109 836.8214,295.0699 C843.1903,298.679 843.9211,303.0726 838.8378,308.4124 C845.035,311.5496 847.2063,316.7211 840.5187,321.5115 C845.6415,326.5139 845.0163,331.9356 837.9618,334.5501 C843.651,338.2361 844.1233,345.0903 837.8671,348.6964 C843.9714,353.4593 843.3293,358.6758 836.606,362.2447 C834.061,368.1402 828.1459,369.2572 824.1367,363.8616 C820.0971,369.3374 816.0638,370.8338 811.4305,364.5003 C809.0573,370.4268 805.6598,370.5802 800.933,367.137 C797.7725,372.3558 792.6722,373.7783 789.0825,367.5826 C785.7997,373.4865 780.7805,373.761 777.0657,368.0287 C775.2091,372.6965 770.4957,374.3933 767.1145,369.6389 C763.9339,375.0971 759.7873,375.5867 755.6516,370.697 C751.5665,375.0395 746.6478,374.4071 743.9644,369.0142 C740.088,373.7405 734.7553,375.0494 731.6994,368.1488 C727.8419,373.0726 724.0165,373.5393 720.868,367.4515 C716.1577,373.1257 711.0033,372.2576 707.6325,365.9695 C704.4335,371.2904 698.6851,371.6853 696.0635,365.3942 C692.2185,370.8065 687.8649,369.9677 684.8235,364.5595 C680.2763,369.8572 675.3355,368.4553 673.4456,361.9893 C667.3878,360.024 664.77,355.0345 669.7433,349.7362 C662.0925,345.6441 663.5355,341.2359 668.7107,336.1677 C661.9744,333.5318 659.9219,327.7722 665.8253,322.4732 C659.3576,317.0272 660.8258,312.3356 668.165,309.3514 C661.9517,303.7359 662.9844,298.9203 669.5845,294.5323 C663.6798,289.3812 664.8309,283.2342 672.5222,281.0445 " fill="none" style="stroke:#181818;stroke-width:1.0;"/><text fill="#000000" font-family="sans-serif" font-size="14" font-weight="bold" lengthAdjust="spacing" textLength="110" x="698.471" y="298.4951">Infrastructure</text></g><text fill="#000000" font-family="sans-serif" font-size="14" lengthAdjust="spacing" textLength="65" x="225.471" y="22.1982">chat_port</text><rect fill="#F1F1F1" height="12" style="stroke:#181818;stroke-width:1.5;" width="12" x="251.971" y="37.5"/><!--entity OllamaServer--><g id="elem_OllamaServer"><rect fill="#F1F1F1" height="46.2969" rx="2.5" ry="2.5" style="stroke:#181818;stroke-width:0.5;" width="130" x="193.471" y="179.5"/><rect fill="#F1F1F1" height="10" style="stroke:#181818;stroke-width:0.5;" width="15" x="303.471" y="184.5"/><rect fill="#F1F1F1" height="2" style="stroke:#181818;stroke-width:0.5;" width="4" x="301.471" y="186.5"/><rect fill="#F1F1F1" height="2" style="stroke:#181818;stroke-width:0.5;" width="4" x="301.471" y="190.5"/><text fill="#000000" font-family="sans-serif" font-size="14" lengthAdjust="spacing" textLength="90" x="208.471" y="212.4951">OllamaServer</text></g><!--entity LLMChat--><g id="elem_LLMChat"><rect fill="#F1F1F1" height="46.2969" rx="2.5" ry="2.5" style="stroke:#181818;stroke-width:0.5;" width="98" x="347.471" y="20.5"/><rect fill="#F1F1F1" height="10" style="stroke:#181818;stroke-width:0.5;" width="15" x="425.471" y="25.5"/><rect fill="#F1F1F1" height="2" style="stroke:#181818;stroke-width:0.5;" width="4" x="423.471" y="27.5"/><rect fill="#F1F1F1" height="2" style="stroke:#181818;stroke-width:0.5;" width="4" x="423.471" y="31.5"/><text fill="#000000" font-family="sans-serif" font-size="14" lengthAdjust="spacing" textLength="58" x="362.471" y="53.4951">LLMChat</text></g><!--entity tools_api--><g id="elem_tools_api"><ellipse cx="615.471" cy="330.5" fill="#F1F1F1" rx="8" ry="8" style="stroke:#181818;stroke-width:0.5;"/><text fill="#000000" font-family="sans-serif" font-size="14" lengthAdjust="spacing" textLength="26" x="602.471" y="360.4951">use</text></g><!--entity tools_mcp--><g id="elem_tools_mcp"><ellipse cx="449.471" cy="330.5" fill="#F1F1F1" rx="8" ry="8" style="stroke:#181818;stroke-width:0.5;"/><text fill="#000000" font-family="sans-serif" font-size="14" lengthAdjust="spacing" textLength="26" x="436.471" y="360.4951">use</text></g><!--entity REST--><g id="elem_REST"><rect fill="#F1F1F1" height="46.2969" rx="2.5" ry="2.5" style="stroke:#181818;stroke-width:0.5;" width="77" x="546.971" y="179.5"/><rect fill="#F1F1F1" height="10" style="stroke:#181818;stroke-width:0.5;" width="15" x="603.971" y="184.5"/><rect fill="#F1F1F1" height="2" style="stroke:#181818;stroke-width:0.5;" width="4" x="601.971" y="186.5"/><rect fill="#F1F1F1" height="2" style="stroke:#181818;stroke-width:0.5;" width="4" x="601.971" y="190.5"/><text fill="#000000" font-family="sans-serif" font-size="14" lengthAdjust="spacing" textLength="37" x="561.971" y="212.4951">REST</text></g><!--entity MCP--><g id="elem_MCP"><rect fill="#F1F1F1" height="46.2969" rx="2.5" ry="2.5" style="stroke:#181818;stroke-width:0.5;" width="71" x="440.971" y="179.5"/><rect fill="#F1F1F1" height="10" style="stroke:#181818;stroke-width:0.5;" width="15" x="491.971" y="184.5"/><rect fill="#F1F1F1" height="2" style="stroke:#181818;stroke-width:0.5;" width="4" x="489.971" y="186.5"/><rect fill="#F1F1F1" height="2" style="stroke:#181818;stroke-width:0.5;" width="4" x="489.971" y="190.5"/><text fill="#000000" font-family="sans-serif" font-size="14" lengthAdjust="spacing" textLength="31" x="455.971" y="212.4951">MCP</text></g><!--entity Tools--><g id="elem_Tools"><rect fill="#F1F1F1" height="46.2969" rx="2.5" ry="2.5" style="stroke:#181818;stroke-width:0.5;" width="78" x="493.471" y="307.5"/><rect fill="#F1F1F1" height="10" style="stroke:#181818;stroke-width:0.5;" width="15" x="551.471" y="312.5"/><rect fill="#F1F1F1" height="2" style="stroke:#181818;stroke-width:0.5;" width="4" x="549.471" y="314.5"/><rect fill="#F1F1F1" height="2" style="stroke:#181818;stroke-width:0.5;" width="4" x="549.471" y="318.5"/><text fill="#000000" font-family="sans-serif" font-size="14" lengthAdjust="spacing" textLength="38" x="508.471" y="340.4951">Tools</text></g><!--entity ExternalSystem--><g id="elem_ExternalSystem"><rect fill="#F1F1F1" height="46.2969" rx="2.5" ry="2.5" style="stroke:#181818;stroke-width:0.5;" width="146" x="680.471" y="307.5"/><rect fill="#F1F1F1" height="10" style="stroke:#181818;stroke-width:0.5;" width="15" x="806.471" y="312.5"/><rect fill="#F1F1F1" height="2" style="stroke:#181818;stroke-width:0.5;" width="4" x="804.471" y="314.5"/><rect fill="#F1F1F1" height="2" style="stroke:#181818;stroke-width:0.5;" width="4" x="804.471" y="318.5"/><text fill="#000000" font-family="sans-serif" font-size="14" lengthAdjust="spacing" textLength="106" x="695.471" y="340.4951">ExternalSystem</text></g><!--entity SmartChat--><g id="elem_SmartChat"><ellipse cx="489.471" cy="43.5" fill="#F1F1F1" rx="8" ry="8" style="stroke:#181818;stroke-width:0.5;"/><text fill="#000000" font-family="sans-serif" font-size="14" lengthAdjust="spacing" textLength="57" x="460.971" y="73.4951">CLI-Chat</text></g><!--entity user--><g id="elem_user"><ellipse cx="683.471" cy="14" fill="#F1F1F1" rx="8" ry="8" style="stroke:#181818;stroke-width:0.5;"/><path d="M683.471,22 L683.471,49 M670.471,30 L696.471,30 M683.471,49 L670.471,64 M683.471,49 L696.471,64 " fill="none" style="stroke:#181818;stroke-width:0.5;"/><text fill="#000000" font-family="sans-serif" font-size="14" lengthAdjust="spacing" textLength="31" x="667.971" y="78.4951">user</text></g><!--entity mcp_api--><g id="elem_mcp_api"><ellipse cx="396.471" cy="202.5" fill="#F1F1F1" rx="8" ry="8" style="stroke:#181818;stroke-width:0.5;"/><text fill="#000000" font-family="sans-serif" font-size="14" lengthAdjust="spacing" textLength="30" x="381.471" y="232.4951">mcp</text></g><!--entity rest_api--><g id="elem_rest_api"><ellipse cx="671.471" cy="202.5" fill="#F1F1F1" rx="8" ry="8" style="stroke:#181818;stroke-width:0.5;"/><text fill="#000000" font-family="sans-serif" font-size="14" lengthAdjust="spacing" textLength="20" x="661.471" y="232.4951">api</text></g><!--link OllamaServer to chat_port--><g id="link_OllamaServer_chat_port"><path d="M258.471,179.3 C258.471,142.21 258.471,75.73 258.471,55.72 " fill="none" id="OllamaServer-to-chat_port" style="stroke:#181818;stroke-width:1.0;"/><polygon fill="#181818" points="258.471,49.72,254.471,58.72,258.471,54.72,262.471,58.72,258.471,49.72" style="stroke:#181818;stroke-width:1.0;"/></g><!--link LLMChat to chat_port--><g id="link_LLMChat_chat_port"><path d="M347.241,43.5 C315.281,43.5 282.951,43.5 269.991,43.5 " fill="none" id="LLMChat-to-chat_port" style="stroke:#181818;stroke-width:1.0;"/><polygon fill="#181818" points="263.991,43.5,272.991,47.5,268.991,43.5,272.991,39.5,263.991,43.5" style="stroke:#181818;stroke-width:1.0;"/></g><!--link LLMChat to SmartChat--><g id="link_LLMChat_SmartChat"><path d="M445.511,43.5 C457.071,43.5 468.641,43.5 480.201,43.5 " fill="none" id="LLMChat-SmartChat" style="stroke:#181818;stroke-width:1.0;"/></g><!--reverse link SmartChat to user--><g id="link_SmartChat_user"><path d="M504.571,43.5 C535.211,43.5 628.891,43.5 667.751,43.5 " fill="none" id="SmartChat-backto-user" style="stroke:#181818;stroke-width:1.0;"/><polygon fill="#181818" points="498.571,43.5,507.571,47.5,503.571,43.5,507.571,39.5,498.571,43.5" style="stroke:#181818;stroke-width:1.0;"/><text fill="#000000" font-family="sans-serif" font-size="13" lengthAdjust="spacing" textLength="133" x="516.721" y="36.5669">Provide code snippet</text></g><!--link LLMChat to mcp_api--><g id="link_LLMChat_mcp_api"><path d="M396.471,66.66 C396.471,102.16 396.471,164.15 396.471,187.44 " fill="none" id="LLMChat-to-mcp_api" style="stroke:#181818;stroke-width:1.0;stroke-dasharray:7.0,7.0;"/><polygon fill="#181818" points="396.471,193.44,400.471,184.44,396.471,188.44,392.471,184.44,396.471,193.44" style="stroke:#181818;stroke-width:1.0;"/><text fill="#000000" font-family="sans-serif" font-size="13" lengthAdjust="spacing" textLength="57" x="397.471" y="124.5669">sse/stdio</text></g><!--link REST to rest_api--><g id="link_REST_rest_api"><path d="M624.101,202.5 C636.811,202.5 649.511,202.5 662.221,202.5 " fill="none" id="REST-rest_api" style="stroke:#181818;stroke-width:1.0;"/></g><!--link MCP to mcp_api--><g id="link_MCP_mcp_api"><path d="M440.721,202.5 C428.991,202.5 417.261,202.5 405.531,202.5 " fill="none" id="MCP-mcp_api" style="stroke:#181818;stroke-width:1.0;"/></g><!--link Tools to tools_api--><g id="link_Tools_tools_api"><path d="M571.701,330.5 C583.211,330.5 594.731,330.5 606.241,330.5 " fill="none" id="Tools-tools_api" style="stroke:#181818;stroke-width:1.0;"/></g><!--link MCP to tools_mcp--><g id="link_MCP_tools_mcp"><path d="M471.711,225.74 C465.591,254.28 456.5388,296.5133 452.4588,315.5433 " fill="none" id="MCP-to-tools_mcp" style="stroke:#181818;stroke-width:1.0;stroke-dasharray:7.0,7.0;"/><polygon fill="#181818" points="451.201,321.41,456.9988,313.4485,452.2492,316.5211,449.1766,311.7714,451.201,321.41" style="stroke:#181818;stroke-width:1.0;"/></g><!--link REST to tools_api--><g id="link_REST_tools_api"><path d="M590.761,225.74 C597.561,254.28 607.6215,296.5431 612.1515,315.5731 " fill="none" id="REST-to-tools_api" style="stroke:#181818;stroke-width:1.0;stroke-dasharray:7.0,7.0;"/><polygon fill="#181818" points="613.541,321.41,615.3481,311.7283,612.3831,316.5459,607.5656,313.5809,613.541,321.41" style="stroke:#181818;stroke-width:1.0;"/></g><!--link tools_mcp to Tools--><g id="link_tools_mcp_Tools"><path d="M458.551,330.5 C470.101,330.5 481.651,330.5 493.201,330.5 " fill="none" id="tools_mcp-Tools" style="stroke:#181818;stroke-width:1.0;"/></g><!--reverse link rest_api to ExternalSystem--><g id="link_rest_api_ExternalSystem"><path d="M680.1239,216.7987 C692.5939,235.9587 720.551,278.91 739.061,307.35 " fill="none" id="rest_api-backto-ExternalSystem" style="stroke:#181818;stroke-width:1.0;stroke-dasharray:7.0,7.0;"/><polygon fill="#181818" points="676.851,211.77,678.4078,221.495,679.5784,215.9606,685.1128,217.1312,676.851,211.77" style="stroke:#181818;stroke-width:1.0;"/></g><!--SRC=[ZLBBQiCm4BphAnQVseDTscC8kPWS0WuDTMuc125lgC2Mn4eEBQN_Nab-n0wbr0TRcjdTcLai6jtLaEpKXRXrr0dN4IR0BSW5z0nV3FnZD3cfGBnpTmxd25QlJSDRNY9TaKwGRcRyDsDIEQGB5mX9NkpIt7DHeMmvkN1ZJEZMQ8NAGL8K-xwY5wo6-ztOEsesomioBfmcw2mIcmXOfn615Hn8NsMD8BH_MIMDGUzXxhCL9bhqtpCtSaxvQwG8hOiSk_d8iWqyF8vTAx0MdwohfMQBYD5Jlwqnvap0cum2Jkl6HeK_2xnOlustRNaCgvYCHNIV7m8u1edOCJG6T2dHruOClqw-4MF3L0RfC3DiN_ppbtePeez-OPrbK6q_V4x5c_BJEcnFu2V-0000]--></g></svg>