<?xml version="1.0" encoding="us-ascii" standalone="no"?><svg xmlns="http://www.w3.org/2000/svg" xmlns:xlink="http://www.w3.org/1999/xlink" contentStyleType="text/css" height="382px" preserveAspectRatio="none" style="width:903px;height:382px;background:#FFFFFF;" version="1.1" viewBox="0 0 903 382" width="903px" zoomAndPan="magnify"><defs/><g><!--cluster infrastructure1--><g id="cluster_infrastructure1"><path d="M32.9072,55.1029 C38.5199,44.814 44.4473,42.7435 53.1008,51.9539 C59.2496,43.6857 67.724,43.3241 73.6341,52.2392 C78.4978,41.1779 87.0824,40.0223 95.807,47.6615 C102.2596,36.4281 110.9335,36.8448 117.1924,47.8478 C122.7359,37.6962 129.1361,37.2948 136.3388,46.1789 C144.6819,35.8675 152.5894,35.0592 159.997,47.1662 C164.1267,35.7508 173.1601,34.9525 179.9421,44.662 C185.9778,34.0196 195.109,35.8796 200.4419,45.3775 C206.8002,36.2963 216.4926,37.4202 219.9098,48.2528 C226.0071,38.5518 234.366,37.4409 241.0832,47.5916 C249.4106,38.2258 258.9459,37.5167 264.4879,50.5077 C269.8088,42.1788 278.0417,41.4797 283.8865,49.9011 C290.2852,40.7955 298.5632,40.6885 304.4297,50.4796 C315.5856,38.2411 328.1795,44.2232 331.471,58.5 C332.5528,56.7544 334.2135,57.3068 334.9885,58.8302 C344.9877,66.4739 345.2299,74.7366 333.4865,80.9007 C345.7834,86.8535 347.2415,95.5012 336.1722,104.153 C346.477,108.4877 346.5784,116.7292 337.3718,122.3503 C349.7199,128.0954 350.7457,138.955 338.6284,146 C349.1523,152.4037 348.7342,160.8971 337.9447,166.5933 C347.2023,172.8924 344.7815,180.2739 336.0142,184.6454 C346.7314,193.5781 344.5071,200.778 332.9227,206.5655 C342.1625,219.2425 338.7414,228.2002 324.471,233.5 C327.1364,232.4454 328.5913,233.5964 328.475,236.3925 C319.5619,246.0175 312.047,247.1763 303.904,235.5041 C298.8283,243.8654 293.7011,246.2126 286.6166,237.5431 C279.3939,249.6528 270.7799,249.0764 264.2054,236.9438 C258.2045,249.2792 248.2025,249.5142 241.732,237.3751 C237.78,248.4124 231.4723,249.8379 223.4988,241.079 C215.9476,252.7568 207.3199,251.6855 201.0891,239.8221 C195.9162,249.6525 188.8428,252.4407 180.8105,242.8001 C173.706,250.8046 164.7571,251.3818 159.819,240.4043 C153.0905,251.2277 142.269,250.8686 136.9692,238.9677 C129.4884,247.427 123.2915,246.9058 117.3079,237.3351 C110.8614,247.2903 103.0156,248.9496 95.7334,238.2061 C90.0205,247.155 81.2267,246.6961 75.3767,238.3676 C68.6285,248.8572 59.137,248.9914 52.5379,238.2076 C37.7307,248.102 28.8198,241.6779 24.471,226.5 C26.8728,226.2481 28.5706,227.9418 27.6249,230.3983 C15.7905,225.111 14.8108,214.8645 25.4498,207.4473 C12.3039,203.7728 12.2897,196.8055 18.7708,186.7863 C6.6413,179.3493 8.6602,170.6426 19.173,163.5983 C9.2324,159.8189 9.2792,152.9217 15.7529,145.9596 C7.8273,137.8165 8.1486,129.8965 18.8465,124.4292 C9.226,117.2276 6,108.1504 18.6531,100.7668 C11.489,91.9493 12.594,85.4965 23.9673,81.9007 C12.144,69.9713 14.301,56.2732 31.471,51.5 C33.8552,51.8469 34.0701,53.3421 32.9072,55.1029 " fill="none" style="stroke:#181818;stroke-width:1.0;"/><text fill="#000000" font-family="sans-serif" font-size="14" font-weight="bold" lengthAdjust="spacing" textLength="110" x="122.971" y="69.4951">Infrastructure</text></g><!--cluster Smart Compiler--><g id="cluster_Smart Compiler"><rect fill="none" height="225" rx="2.5" ry="2.5" style="stroke:#181818;stroke-width:1.0;" width="265" x="424.471" y="144.5"/><rect fill="none" height="10" style="stroke:#181818;stroke-width:1.0;" width="15" x="669.471" y="149.5"/><rect fill="none" height="2" style="stroke:#181818;stroke-width:1.0;" width="4" x="667.471" y="151.5"/><rect fill="none" height="2" style="stroke:#181818;stroke-width:1.0;" width="4" x="667.471" y="155.5"/><text fill="#000000" font-family="sans-serif" font-size="14" font-weight="bold" lengthAdjust="spacing" textLength="121" x="496.471" y="170.4951">Smart Compiler</text></g><!--cluster infrastructure2--><g id="cluster_infrastructure2"><path d="M721.5222,281.0445 C725.4138,274.8322 730.9492,275.3495 734.199,281.6925 C737.8333,274.5542 741.8715,274.3288 746.6784,280.6014 C749.3196,274.9173 754.2294,273.5239 758.1946,279.2672 C761.3175,274.6503 765.0674,273.8821 768.2079,279.2496 C772.3433,273.9162 777.3618,273.6927 780.5974,280.1918 C782.9841,275.3024 787.7702,274.2848 791.5262,278.5587 C794.319,273.1997 799.6883,272.0085 803.7116,277.1276 C807.3519,272.2848 811.9704,272.8207 814.3743,278.3933 C818.0977,272.5586 823.6857,272.4624 827.1103,278.7083 C830.598,272.625 835.8156,274.4254 838.6138,279.4241 C842.226,273.4239 846.6326,274.957 850.0049,279.679 C853.8511,273.9036 857.3903,274.5962 860.79,280.1057 C864.0792,275.5329 869.8668,274.4402 872.4787,280.828 C876.791,275.62 880.7009,275.6863 884.4288,281.4637 C890.6192,284.5954 891.6223,290.7109 885.8214,295.0699 C892.1903,298.679 892.9211,303.0726 887.8378,308.4124 C894.035,311.5496 896.2063,316.7211 889.5187,321.5115 C894.6415,326.5139 894.0163,331.9356 886.9618,334.5501 C892.651,338.2361 893.1233,345.0903 886.8671,348.6964 C892.9714,353.4593 892.3293,358.6758 885.606,362.2447 C883.061,368.1402 877.1459,369.2572 873.1367,363.8616 C869.0971,369.3374 865.0638,370.8338 860.4305,364.5003 C858.0573,370.4268 854.6598,370.5802 849.933,367.137 C846.7725,372.3558 841.6722,373.7783 838.0825,367.5826 C834.7997,373.4865 829.7805,373.761 826.0657,368.0287 C824.2091,372.6965 819.4957,374.3933 816.1145,369.6389 C812.9339,375.0971 808.7873,375.5867 804.6516,370.697 C800.5665,375.0395 795.6478,374.4071 792.9644,369.0142 C789.088,373.7405 783.7553,375.0494 780.6994,368.1488 C776.8419,373.0726 773.0165,373.5393 769.868,367.4515 C765.1577,373.1257 760.0033,372.2576 756.6325,365.9695 C753.4335,371.2904 747.6851,371.6853 745.0635,365.3942 C741.2185,370.8065 736.8649,369.9677 733.8235,364.5595 C729.2763,369.8572 724.3355,368.4553 722.4456,361.9893 C716.3878,360.024 713.77,355.0345 718.7433,349.7362 C711.0925,345.6441 712.5355,341.2359 717.7107,336.1677 C710.9744,333.5318 708.9219,327.7722 714.8253,322.4732 C708.3576,317.0272 709.8258,312.3356 717.165,309.3514 C710.9517,303.7359 711.9844,298.9203 718.5845,294.5323 C712.6798,289.3812 713.8309,283.2342 721.5222,281.0445 " fill="none" style="stroke:#181818;stroke-width:1.0;"/><text fill="#000000" font-family="sans-serif" font-size="14" font-weight="bold" lengthAdjust="spacing" textLength="110" x="747.471" y="298.4951">Infrastructure</text></g><text fill="#000000" font-family="sans-serif" font-size="14" lengthAdjust="spacing" textLength="65" x="225.471" y="22.1982">chat_port</text><rect fill="#F1F1F1" height="12" style="stroke:#181818;stroke-width:1.5;" width="12" x="251.971" y="37.5"/><!--entity OllamaServer--><g id="elem_OllamaServer"><rect fill="#F1F1F1" height="46.2969" rx="2.5" ry="2.5" style="stroke:#181818;stroke-width:0.5;" width="130" x="193.471" y="179.5"/><rect fill="#F1F1F1" height="10" style="stroke:#181818;stroke-width:0.5;" width="15" x="303.471" y="184.5"/><rect fill="#F1F1F1" height="2" style="stroke:#181818;stroke-width:0.5;" width="4" x="301.471" y="186.5"/><rect fill="#F1F1F1" height="2" style="stroke:#181818;stroke-width:0.5;" width="4" x="301.471" y="190.5"/><text fill="#000000" font-family="sans-serif" font-size="14" lengthAdjust="spacing" textLength="90" x="208.471" y="212.4951">OllamaServer</text></g><!--entity LLMChat--><g id="elem_LLMChat"><rect fill="#F1F1F1" height="46.2969" rx="2.5" ry="2.5" style="stroke:#181818;stroke-width:0.5;" width="98" x="347.471" y="20.5"/><rect fill="#F1F1F1" height="10" style="stroke:#181818;stroke-width:0.5;" width="15" x="425.471" y="25.5"/><rect fill="#F1F1F1" height="2" style="stroke:#181818;stroke-width:0.5;" width="4" x="423.471" y="27.5"/><rect fill="#F1F1F1" height="2" style="stroke:#181818;stroke-width:0.5;" width="4" x="423.471" y="31.5"/><text fill="#000000" font-family="sans-serif" font-size="14" lengthAdjust="spacing" textLength="58" x="362.471" y="53.4951">LLMChat</text></g><!--entity tools_api--><g id="elem_tools_api"><ellipse cx="642.471" cy="330.5" fill="#F1F1F1" rx="8" ry="8" style="stroke:#181818;stroke-width:0.5;"/><text fill="#000000" font-family="sans-serif" font-size="14" lengthAdjust="spacing" textLength="26" x="629.471" y="360.4951">use</text></g><!--entity tools_mcp--><g id="elem_tools_mcp"><ellipse cx="476.471" cy="330.5" fill="#F1F1F1" rx="8" ry="8" style="stroke:#181818;stroke-width:0.5;"/><text fill="#000000" font-family="sans-serif" font-size="14" lengthAdjust="spacing" textLength="26" x="463.471" y="360.4951">use</text></g><!--entity REST API--><g id="elem_REST API"><rect fill="#F1F1F1" height="46.2969" rx="2.5" ry="2.5" style="stroke:#181818;stroke-width:0.5;" width="102" x="571.471" y="179.5"/><rect fill="#F1F1F1" height="10" style="stroke:#181818;stroke-width:0.5;" width="15" x="653.471" y="184.5"/><rect fill="#F1F1F1" height="2" style="stroke:#181818;stroke-width:0.5;" width="4" x="651.471" y="186.5"/><rect fill="#F1F1F1" height="2" style="stroke:#181818;stroke-width:0.5;" width="4" x="651.471" y="190.5"/><text fill="#000000" font-family="sans-serif" font-size="14" lengthAdjust="spacing" textLength="62" x="586.471" y="212.4951">REST API</text></g><!--entity MCP API--><g id="elem_MCP API"><rect fill="#F1F1F1" height="46.2969" rx="2.5" ry="2.5" style="stroke:#181818;stroke-width:0.5;" width="96" x="440.471" y="179.5"/><rect fill="#F1F1F1" height="10" style="stroke:#181818;stroke-width:0.5;" width="15" x="516.471" y="184.5"/><rect fill="#F1F1F1" height="2" style="stroke:#181818;stroke-width:0.5;" width="4" x="514.471" y="186.5"/><rect fill="#F1F1F1" height="2" style="stroke:#181818;stroke-width:0.5;" width="4" x="514.471" y="190.5"/><text fill="#000000" font-family="sans-serif" font-size="14" lengthAdjust="spacing" textLength="56" x="455.471" y="212.4951">MCP API</text></g><!--entity Tools--><g id="elem_Tools"><rect fill="#F1F1F1" height="46.2969" rx="2.5" ry="2.5" style="stroke:#181818;stroke-width:0.5;" width="78" x="520.471" y="307.5"/><rect fill="#F1F1F1" height="10" style="stroke:#181818;stroke-width:0.5;" width="15" x="578.471" y="312.5"/><rect fill="#F1F1F1" height="2" style="stroke:#181818;stroke-width:0.5;" width="4" x="576.471" y="314.5"/><rect fill="#F1F1F1" height="2" style="stroke:#181818;stroke-width:0.5;" width="4" x="576.471" y="318.5"/><text fill="#000000" font-family="sans-serif" font-size="14" lengthAdjust="spacing" textLength="38" x="535.471" y="340.4951">Tools</text></g><!--entity ExternalSystem--><g id="elem_ExternalSystem"><rect fill="#F1F1F1" height="46.2969" rx="2.5" ry="2.5" style="stroke:#181818;stroke-width:0.5;" width="146" x="729.471" y="307.5"/><rect fill="#F1F1F1" height="10" style="stroke:#181818;stroke-width:0.5;" width="15" x="855.471" y="312.5"/><rect fill="#F1F1F1" height="2" style="stroke:#181818;stroke-width:0.5;" width="4" x="853.471" y="314.5"/><rect fill="#F1F1F1" height="2" style="stroke:#181818;stroke-width:0.5;" width="4" x="853.471" y="318.5"/><text fill="#000000" font-family="sans-serif" font-size="14" lengthAdjust="spacing" textLength="106" x="744.471" y="340.4951">ExternalSystem</text></g><!--entity SmartChat--><g id="elem_SmartChat"><ellipse cx="489.471" cy="43.5" fill="#F1F1F1" rx="8" ry="8" style="stroke:#181818;stroke-width:0.5;"/><text fill="#000000" font-family="sans-serif" font-size="14" lengthAdjust="spacing" textLength="57" x="460.971" y="73.4951">CLI-Chat</text></g><!--entity user--><g id="elem_user"><ellipse cx="683.471" cy="14" fill="#F1F1F1" rx="8" ry="8" style="stroke:#181818;stroke-width:0.5;"/><path d="M683.471,22 L683.471,49 M670.471,30 L696.471,30 M683.471,49 L670.471,64 M683.471,49 L696.471,64 " fill="none" style="stroke:#181818;stroke-width:0.5;"/><text fill="#000000" font-family="sans-serif" font-size="14" lengthAdjust="spacing" textLength="31" x="667.971" y="78.4951">user</text></g><!--entity mcp_api--><g id="elem_mcp_api"><ellipse cx="396.471" cy="202.5" fill="#F1F1F1" rx="8" ry="8" style="stroke:#181818;stroke-width:0.5;"/><text fill="#000000" font-family="sans-serif" font-size="14" lengthAdjust="spacing" textLength="30" x="381.471" y="232.4951">mcp</text></g><!--entity rest_api--><g id="elem_rest_api"><ellipse cx="720.471" cy="202.5" fill="#F1F1F1" rx="8" ry="8" style="stroke:#181818;stroke-width:0.5;"/><text fill="#000000" font-family="sans-serif" font-size="14" lengthAdjust="spacing" textLength="20" x="710.471" y="232.4951">api</text></g><!--link OllamaServer to chat_port--><g id="link_OllamaServer_chat_port"><path d="M258.471,179.3 C258.471,142.21 258.471,75.73 258.471,55.72 " fill="none" id="OllamaServer-to-chat_port" style="stroke:#181818;stroke-width:1.0;"/><polygon fill="#181818" points="258.471,49.72,254.471,58.72,258.471,54.72,262.471,58.72,258.471,49.72" style="stroke:#181818;stroke-width:1.0;"/></g><!--link LLMChat to chat_port--><g id="link_LLMChat_chat_port"><path d="M347.241,43.5 C315.281,43.5 282.951,43.5 269.991,43.5 " fill="none" id="LLMChat-to-chat_port" style="stroke:#181818;stroke-width:1.0;"/><polygon fill="#181818" points="263.991,43.5,272.991,47.5,268.991,43.5,272.991,39.5,263.991,43.5" style="stroke:#181818;stroke-width:1.0;"/></g><!--link LLMChat to SmartChat--><g id="link_LLMChat_SmartChat"><path d="M445.511,43.5 C457.071,43.5 468.641,43.5 480.201,43.5 " fill="none" id="LLMChat-SmartChat" style="stroke:#181818;stroke-width:1.0;"/></g><!--reverse link SmartChat to user--><g id="link_SmartChat_user"><path d="M504.571,43.5 C535.211,43.5 628.891,43.5 667.751,43.5 " fill="none" id="SmartChat-backto-user" style="stroke:#181818;stroke-width:1.0;"/><polygon fill="#181818" points="498.571,43.5,507.571,47.5,503.571,43.5,507.571,39.5,498.571,43.5" style="stroke:#181818;stroke-width:1.0;"/><text fill="#000000" font-family="sans-serif" font-size="13" lengthAdjust="spacing" textLength="133" x="516.721" y="36.5669">Provide code snippet</text></g><!--link LLMChat to mcp_api--><g id="link_LLMChat_mcp_api"><path d="M396.471,66.66 C396.471,102.16 396.471,160.15 396.471,183.44 " fill="none" id="LLMChat-to-mcp_api" style="stroke:#181818;stroke-width:1.0;"/><path d="M404.9282,190.3618 A9,9 0 0 0 388.0138 190.3618" fill="none" style="stroke:#181818;stroke-width:1.5;"/><text fill="#000000" font-family="sans-serif" font-size="13" lengthAdjust="spacing" textLength="57" x="397.471" y="124.5669">sse/stdio</text></g><!--link REST API to rest_api--><g id="link_REST API_rest_api"><path d="M673.771,202.5 C686.291,202.5 698.821,202.5 711.351,202.5 " fill="none" id="REST API-rest_api" style="stroke:#181818;stroke-width:1.0;"/></g><!--link MCP API to mcp_api--><g id="link_MCP API_mcp_api"><path d="M440.361,202.5 C428.851,202.5 417.331,202.5 405.811,202.5 " fill="none" id="MCP API-mcp_api" style="stroke:#181818;stroke-width:1.0;"/></g><!--link Tools to tools_api--><g id="link_Tools_tools_api"><path d="M598.701,330.5 C610.211,330.5 621.731,330.5 633.241,330.5 " fill="none" id="Tools-tools_api" style="stroke:#181818;stroke-width:1.0;"/></g><!--link MCP API to tools_mcp--><g id="link_MCP API_tools_mcp"><path d="M486.351,225.74 C483.631,254.28 479.9978,292.4249 478.1878,311.4549 " fill="none" id="MCP API-to-tools_mcp" style="stroke:#181818;stroke-width:1.0;"/><path d="M485.9517,319.1464 A9,9 0 0 0 469.1132 317.5449" fill="none" style="stroke:#181818;stroke-width:1.5;"/></g><!--link REST API to tools_api--><g id="link_REST API_tools_api"><path d="M626.001,225.74 C630.531,254.28 636.6036,292.5036 639.6236,311.5336 " fill="none" id="REST API-to-tools_api" style="stroke:#181818;stroke-width:1.0;"/><path d="M649.0612,317.0443 A9,9 0 0 0 632.3558 319.6954" fill="none" style="stroke:#181818;stroke-width:1.5;"/></g><!--link tools_mcp to Tools--><g id="link_tools_mcp_Tools"><path d="M485.551,330.5 C497.101,330.5 508.651,330.5 520.201,330.5 " fill="none" id="tools_mcp-Tools" style="stroke:#181818;stroke-width:1.0;"/></g><!--reverse link rest_api to ExternalSystem--><g id="link_rest_api_ExternalSystem"><path d="M731.3058,220.1512 C743.7758,239.3112 769.551,278.91 788.061,307.35 " fill="none" id="rest_api-backto-ExternalSystem" style="stroke:#181818;stroke-width:1.0;"/><path d="M720.4419,218.9632 A9,9 0 0 0 734.6183 209.7366" fill="none" style="stroke:#181818;stroke-width:1.5;"/></g><!--SRC=[ZLB1QiCm3BtxAqHEsy6CxLZ6O8GU0YqhIs-b5EEgr93OGNRAnjY_Jt7Zu1GsbaCIlIU_zwH4Dwu_Gb7P4oaVgDUX9on0UJ0pw16-1F3LEGh6WZwhS1ZU8xXxQnhLgXhfWhG7-PBntq8O6v1EIYCKvQgI9NFHeMuLXQ4IGhksSnPjW6ArMbyxheQxiRwHlQ4oBJOKIWT7q7iaCH7mB2C22zYGkvWZWdPyyzPq7NA6F6UhknYHdmVLcPpYCbA4FaHEP3daNJgo0E_nmOUZSM8sNmm49GEcGKfZPWOSCXe4vneV7VviOB_hDjwNzHPUDzMmZYbSPDRb9X5fe8Xl1u41dLjb_JpFxouJcGvEhI17xU5hw7_-Oa_ZAb9sk9SITiiFdjkgflxq0TiziE8F]--></g></svg>